<svg xmlns="http://www.w3.org/2000/svg" xmlns:xlink="http://www.w3.org/1999/xlink" preserveAspectRatio="xMidYMid meet" width="642" height="219" xmlns:v="https://vecta.io/nano"><style><![CDATA[.B{opacity:.98}.C{fill-opacity:0}.D{stroke:#000}.E{stroke-opacity:0}.F{fill:#1d96b5}.G{fill:#1b1918}]]></style><defs><path d="M36.36 30.85c7.59 0 14.5 3.29 19.5 8.6 5 5.32 8.1 12.65 8.1 20.71v45.08c-5.23-.5-8.38-2.9-9.88-4.43V60.16c0-5.16-2-9.87-5.21-13.28-3.22-3.41-7.64-5.53-12.51-5.53h-5.75c-4.87 0-9.3 2.12-12.51 5.53S12.89 55 12.89 60.16v49.5c0 5.17 2 9.87 5.21 13.28 3.21 3.42 7.64 5.53 12.51 5.53h5.75c4.87 0 9.29-2.11 12.51-5.53a19.09 19.09 0 0 0 4.1-6.76c4.4 2.1 7.96 2.39 9.69 2.37-1.36 4.51-3.72 8.55-6.8 11.82-5 5.31-11.91 8.61-19.5 8.61h-5.75c-7.6 0-14.5-3.3-19.5-8.61S3 117.72 3 109.66v-49.5c0-8.06 3.11-15.39 8.11-20.71 5-5.31 11.9-8.6 19.5-8.6h5.75z" id="A"/><path d="M100.08 78.61c7.6 0 14.5 3.3 19.5 8.61 2.44 2.59 4.43 5.67 5.83 9.07-2.45 4.27-5.97 6.33-8.1 7.25-.78-3.42-2.45-6.48-4.72-8.89-3.21-3.42-7.64-5.54-12.51-5.54h-5.75c-4.87 0-9.29 2.12-12.51 5.54-3.21 3.41-5.21 8.11-5.21 13.28v49.49c0 5.17 2 9.88 5.21 13.29 3.22 3.41 7.64 5.53 12.51 5.53h5.75c4.87 0 9.3-2.12 12.51-5.53s5.21-8.12 5.21-13.29v-39.9c4.91-.96 8.2-3.17 9.89-4.59v44.49c0 8.07-3.11 15.4-8.11 20.71-5 5.32-11.9 8.61-19.5 8.61h-5.75c-7.6 0-14.5-3.29-19.5-8.61-5-5.31-8.1-12.64-8.1-20.71v-49.49c0-8.07 3.1-15.4 8.1-20.71s11.9-8.61 19.5-8.61h5.75z" id="B"/><path d="M138.82 87.71c0 8.07-3.1 15.4-8.1 20.71-5.01 5.31-11.91 8.61-19.5 8.61H78.05c-.13-2.9-.21-7.37.25-10.5h32.92c4.86 0 9.29-2.12 12.5-5.53 3.22-3.42 5.21-8.12 5.21-13.29V81.6c0-5.17-1.99-9.87-5.21-13.28-3.21-3.42-7.64-5.54-12.5-5.54H65.49c-.02-2.54-.15-7.38-.83-10.5h46.56c7.59 0 14.49 3.3 19.5 8.61 5 5.31 8.1 12.64 8.1 20.71v6.11zm-74.2 29.32c-7.6 0-14.5-3.3-19.5-8.61s-8.1-12.64-8.1-20.71V81.6c0-8.07 3.1-15.4 8.1-20.71 1.97-2.09 4.24-3.88 6.73-5.27.28 2.52.79 8.11.47 12.48-.07.07-.14.14-.21.22-3.21 3.41-5.21 8.11-5.21 13.28v6.11c0 5.17 2 9.87 5.21 13.29 3.21 3.41 7.64 5.53 12.51 5.53h.33c-.18 2.12-.44 6.27-.27 10.5h-.06z" id="C"/><path d="M48.18 19.63c0 8.59-6.55 15.55-14.64 15.55-8.08 0-14.63-6.96-14.63-15.55S25.46 4.08 33.54 4.08c8.09 0 14.64 6.96 14.64 15.55z" id="D"/><path d="M162.57 85c0 8.59-6.55 15.55-14.64 15.55-8.08 0-14.63-6.96-14.63-15.55s6.55-15.55 14.63-15.55c8.09 0 14.64 6.96 14.64 15.55z" id="E"/><path d="M111.26 197.06c0 8.59-6.55 15.55-14.64 15.55-8.08 0-14.63-6.96-14.63-15.55s6.55-15.55 14.63-15.55c8.09 0 14.64 6.96 14.64 15.55z" id="F"/><path d="M220.67 45.04c0-.81.18-1.38.5-1.7.33-.33.81-.49 1.47-.49h27.49c4.12 0 8.05.53 11.76 1.58 3.72 1.06 7.17 2.55 10.36 4.5a41.43 41.43 0 0 1 8.71 7.05c2.59 2.75 4.81 5.79 6.64 9.13s3.23 6.95 4.23 10.82c1 3.86 1.51 7.91 1.51 12.13 0 4.13-.51 8.12-1.53 11.97-1.02 3.84-2.48 7.43-4.37 10.75-1.88 3.32-4.14 6.34-6.75 9.07a42.62 42.62 0 0 1-8.73 7.03c-3.19 1.95-6.64 3.44-10.33 4.52-3.7 1.07-7.53 1.62-11.5 1.62h-27.49c-.54 0-1-.12-1.39-.37-.38-.24-.58-.73-.58-1.45V45.04zm29.19 77.65c4.87 0 9.36-.93 13.46-2.8 4.08-1.86 7.62-4.41 10.61-7.63 2.96-3.22 5.29-6.97 6.97-11.26 1.67-4.3 2.5-8.85 2.5-13.67 0-5.15-.87-9.82-2.62-14.02-1.75-4.19-4.12-7.77-7.12-10.75s-6.51-5.29-10.55-6.93c-4.03-1.64-8.34-2.45-12.9-2.45h-19.6v69.51h19.25zm69.87-7.53c0 1.78-.85 2.67-2.54 2.67h-4.79c-1.77 0-2.66-.89-2.66-2.67V60.78c0-.81.25-1.46.75-1.95a2.51 2.51 0 0 1 1.79-.73h4.74c.84 0 1.52.27 2 .79a2.71 2.71 0 0 1 .71 1.89v54.38zm63.83-5.72c0 .45-.14.89-.41 1.36s-.56.81-.86 1.01c-2.58 2.23-5.47 3.99-8.69 5.29-3.21 1.3-6.62 1.94-10.2 1.94-4.01 0-7.78-.81-11.32-2.41s-6.64-3.78-9.3-6.58c-2.66-2.79-4.76-6.07-6.3-9.82s-2.31-7.76-2.31-12.05c0-4.3.77-8.33 2.31-12.09 1.54-3.77 3.64-7.05 6.3-9.85a29.57 29.57 0 0 1 9.3-6.6c3.54-1.6 7.31-2.39 11.32-2.39 3.5 0 6.8.57 9.88 1.72 3.08 1.16 5.87 2.78 8.37 4.84.39.29.69.65.93 1.12.23.46.34.99.34 1.56v.48c-.11.37-.33.89-.65 1.6a23.05 23.05 0 0 1-1.16 2.17c-.44.73-.9 1.36-1.38 1.9-.49.55-.93.83-1.31.83-.2 0-.41-.04-.64-.12-.81-.64-1.77-1.31-2.89-2-1.11-.69-2.31-1.32-3.58-1.89-1.27-.56-2.6-1.03-4-1.37-1.41-.35-2.83-.51-4.26-.51-2.62 0-5.04.55-7.29 1.64-2.26 1.1-4.22 2.57-5.88 4.46-1.65 1.88-2.94 4.07-3.89 6.56-.94 2.49-1.42 5.14-1.42 7.94 0 2.87.48 5.55 1.44 8.04.97 2.49 2.29 4.66 3.99 6.5 1.69 1.84 3.7 3.3 5.99 4.37 2.29 1.08 4.75 1.62 7.41 1.62 1.54 0 3.19-.24 4.95-.72 1.75-.49 3.42-1.2 5.04-2.13V93.65c0-.69.19-1.22.58-1.58.38-.37.85-.55 1.39-.55h6.12c.65 0 1.17.2 1.54.63.36.42.54.93.54 1.5v15.79zm25.64 5.72c0 1.78-.84 2.67-2.54 2.67h-4.79c-1.77 0-2.66-.89-2.66-2.67V60.78c0-.81.25-1.46.75-1.95a2.51 2.51 0 0 1 1.79-.73h4.74c.84 0 1.52.27 2 .79a2.71 2.71 0 0 1 .71 1.89v54.38zM425.38 88h15.71l-16.18-28.2c-.19-.4-.29-.7-.29-.91 0-.2.14-.36.39-.48a1.75 1.75 0 0 1 .77-.19h22.41c2.62 0 5.05.53 7.28 1.58 2.23 1.06 4.18 2.5 5.83 4.32 1.66 1.82 2.95 3.93 3.87 6.34.93 2.41 1.39 4.96 1.39 7.63 0 2.64-.46 5.13-1.39 7.5-.92 2.37-2.19 4.45-3.81 6.25a18.55 18.55 0 0 1-5.72 4.32c-2.19 1.07-4.58 1.62-7.16 1.62h-13.05v17.92c0 .57-.16 1.06-.49 1.48-.32.43-.84.65-1.54.65h-5.89c-1.42 0-2.13-.79-2.13-2.37V88zm15.24-20.18l11.04 19.51c.84-.37 1.65-.87 2.4-1.5a10.88 10.88 0 0 0 1.97-2.15c.56-.81.98-1.7 1.29-2.65.3-.95.46-1.92.46-2.94 0-1.33-.23-2.63-.71-3.87a10.89 10.89 0 0 0-2.01-3.28c-.84-.95-1.82-1.7-2.96-2.24-1.14-.55-2.35-.81-3.62-.81h-6.99l-.87-.07zm51.51 49.24c-2.99-1.32-5.62-3.12-7.92-5.41-2.29-2.29-4.1-4.96-5.43-8.04-1.32-3.08-2-6.36-2-9.84V61.02c0-.89.21-1.56.64-2.01.42-.44 1.02-.66 1.79-.66h5.89c.89 0 1.52.18 1.91.56.38.39.57 1.06.57 1.99v33.11c0 1.95.39 3.79 1.16 5.53a15.43 15.43 0 0 0 3.1 4.58c1.29 1.31 2.77 2.37 4.45 3.14 1.67.77 3.42 1.15 5.27 1.15 1.81 0 3.56-.38 5.26-1.15 1.69-.77 3.19-1.83 4.48-3.14 1.29-1.32 2.31-2.84 3.08-4.58s1.16-3.58 1.16-5.53V60.9c0-.93.19-1.6.58-1.99.38-.38 1.02-.56 1.9-.56h5.84c.73 0 1.32.22 1.77.66.44.45.65 1.12.65 2.01v32.75c0 3.48-.67 6.76-2.02 9.84s-3.14 5.75-5.39 8.04-4.89 4.09-7.89 5.41a23.21 23.21 0 0 1-9.42 1.98c-3.31 0-6.45-.66-9.43-1.98zm89.54-9.92c.54 0 1.02.2 1.43.62.4.43.6 1 .6 1.68v6.26c0 .61-.18 1.12-.54 1.52-.37.41-.87.61-1.49.61h-37.42c-1.35 0-2.03-.71-2.03-2.13V60.35c0-.61.2-1.11.58-1.52.39-.4.91-.61 1.56-.61h5.84a2.09 2.09 0 0 1 1.42.55c.4.37.6.89.6 1.58v46.79h29.45zm52.68 0c.54 0 1.02.2 1.43.62.4.43.59 1 .59 1.68v6.26c0 .61-.17 1.12-.54 1.52-.36.41-.86.61-1.48.61h-37.43c-1.34 0-2.02-.71-2.02-2.13V60.35c0-.61.19-1.11.58-1.52.38-.4.9-.61 1.56-.61h5.83c.54 0 1.02.19 1.43.55.4.37.59.89.59 1.58v46.79h29.46z" id="G"/><path d="M269.54 172.7v-14.56h-5.11v-1.94h12.29v1.94h-5.12v14.56h-2.06zm9.39 0v-16.5h2.06v6.8h8.03v-6.8h2.06v16.5h-2.06v-7.76h-8.03v7.76h-2.06zm15.93 0v-16.5h2.06v16.5h-2.06zm5.65 0v-16.5h2.12l8.14 12.95V156.2h1.98v16.5h-2.11l-8.15-12.95v12.95h-1.98zm15.6 0v-16.5h2.06v8.18l7.72-8.18h2.78l-6.51 6.69 6.79 9.81h-2.71l-5.53-8.32-2.54 2.61v5.71h-2.06zm57.81-5.23c-.43 1.79-1.2 3.15-2.32 4.09s-2.48 1.42-4.1 1.42c-1.67 0-3.03-.36-4.08-1.09-1.05-.72-1.84-1.77-2.39-3.14-.54-1.38-.82-2.85-.82-4.42 0-1.72.31-3.21.93-4.49s1.49-2.25 2.63-2.92c1.14-.66 2.4-.99 3.76-.99 1.56 0 2.86.42 3.92 1.26s1.79 2.02 2.21 3.54l-2.02.5c-.35-1.19-.88-2.07-1.56-2.61-.68-.55-1.55-.83-2.58-.83-1.19 0-2.19.31-2.99.91-.8.61-1.36 1.43-1.68 2.45a10.29 10.29 0 0 0-.49 3.17c0 1.4.19 2.62.57 3.67.39 1.05.98 1.83 1.79 2.34.81.52 1.69.78 2.63.78 1.15 0 2.12-.35 2.91-1.06.8-.7 1.34-1.75 1.62-3.14l2.06.56zm2.59 5.23v-16.5h6.88c1.38 0 2.44.15 3.15.45.72.3 1.3.82 1.73 1.57s.64 1.57.64 2.48c0 1.17-.36 2.16-1.07 2.96s-1.81 1.31-3.3 1.53c.55.28.96.55 1.24.82.6.59 1.17 1.32 1.7 2.2l2.69 4.49h-2.57l-2.05-3.43-1.48-2.28c-.39-.53-.74-.89-1.05-1.1-.3-.21-.61-.35-.93-.44-.23-.05-.61-.08-1.15-.08h-2.37v7.33h-2.06zm2.06-9.22h4.41c.94 0 1.67-.1 2.19-.31.53-.2.93-.53 1.2-.99a2.74 2.74 0 0 0 .42-1.48c0-.77-.27-1.42-.8-1.92-.53-.51-1.37-.76-2.51-.76h-4.91v5.46zm13.6 9.22v-16.5h11.21v1.94h-9.15v5.07h8.57v1.93h-8.57v5.62h9.52v1.94h-11.58zm12.72 0l5.96-16.5h2.26l6.32 16.5h-2.34l-1.8-5h-6.53l-1.69 5h-2.18zm4.47-6.77h5.29l-1.62-4.58-1.11-3.44a24.14 24.14 0 0 1-.86 3.18l-1.7 4.84zm14.04 6.77v-14.56h-5.12v-1.94h12.3v1.94h-5.12v14.56h-2.06zm9.34 0v-16.5h11.22v1.94h-9.15v5.07h8.56v1.93h-8.56v5.62h9.52v1.94h-11.59zm44.91 0v-16.5h2.06v16.5h-2.06zm5.65 0v-16.5h2.12l8.14 12.95V156.2h1.98v16.5h-2.11l-8.15-12.95v12.95h-1.98zm15.67 0v-16.5h2.11l8.15 12.95V156.2h1.97v16.5h-2.11l-8.15-12.95v12.95h-1.97zm17.13-14.45c1.39-1.55 3.17-2.32 5.36-2.32 1.44 0 2.73.36 3.88 1.09 1.15.72 2.03 1.74 2.64 3.04.6 1.3.9 2.77.9 4.42 0 1.67-.32 3.17-.95 4.48-.64 1.32-1.54 2.32-2.7 3-1.17.68-2.43 1.02-3.78 1.02-1.46 0-2.77-.38-3.92-1.13s-2.02-1.77-2.62-3.07a9.77 9.77 0 0 1-.89-4.11c0-2.73.7-4.88 2.08-6.42zm1.56 11.15a4.81 4.81 0 0 0 3.78 1.71c1.55 0 2.82-.58 3.82-1.73s1.5-2.78 1.5-4.9c0-1.34-.22-2.52-.64-3.51-.43-1-1.05-1.78-1.88-2.33-.82-.55-1.74-.82-2.76-.82-1.46 0-2.71.53-3.76 1.59s-1.57 2.82-1.57 5.3c0 1.98.5 3.55 1.51 4.69zm18.29 3.3l-6-16.5h2.23l4.03 11.99.81 2.7.84-2.7 4.19-11.99h2.09l-6.05 16.5h-2.14zm6.73 0l5.96-16.5h2.26l6.32 16.5h-2.34l-1.79-5h-6.54l-1.69 5h-2.18zm4.47-6.77h5.29l-1.62-4.58-1.11-3.44a24.14 24.14 0 0 1-.86 3.18l-1.7 4.84zm14.04 6.77v-14.56h-5.12v-1.94h12.3v1.94h-5.12v14.56h-2.06zm9.35 0v-16.5h11.21v1.94h-9.15v5.07h8.56v1.93h-8.56v5.62h9.52v1.94h-11.58z" id="H"/><path d="M348.95 163.98c0 2.9-2.2 5.24-4.93 5.24-2.72 0-4.93-2.34-4.93-5.24 0-2.89 2.21-5.24 4.93-5.24 2.73 0 4.93 2.35 4.93 5.24z" id="I"/><path d="M466.23 163.98c0 2.9-2.21 5.24-4.93 5.24-2.73 0-4.94-2.34-4.94-5.24 0-2.89 2.21-5.24 4.94-5.24 2.72 0 4.93 2.35 4.93 5.24z" id="J"/><path d="M234.12 162.63h22.71v1.97h-22.71v-1.97zm354.5 0h29.1v1.97h-29.1v-1.97z" id="K"/><path d="M186.41 5.72h2.32v207.36h-2.32V5.72z" id="L"/></defs><use xlink:href="#A" class="B F"/><use xlink:href="#A" class="B C D E"/><use xlink:href="#B" class="B G"/><use xlink:href="#B" class="B C D E"/><use xlink:href="#C" fill="#f7941d" class="B"/><use xlink:href="#C" class="B C D E"/><use xlink:href="#D" class="B F"/><use xlink:href="#D" class="B C D E"/><use xlink:href="#E" fill="#f7941d" class="B"/><use xlink:href="#E" class="B C D E"/><use xlink:href="#F" class="B G"/><use xlink:href="#F" class="B C D E"/><use xlink:href="#G" class="B G"/><use xlink:href="#G" class="B C D E"/><use xlink:href="#H" class="B F"/><use xlink:href="#H" class="B C D E"/><use xlink:href="#I" class="B F"/><use xlink:href="#I" class="B C D E"/><use xlink:href="#J" class="B F"/><use xlink:href="#J" class="B C D E"/><use xlink:href="#K" class="B F"/><use xlink:href="#K" class="B C D E"/><use xlink:href="#L" class="B G"/><use xlink:href="#L" class="B C D E"/></svg>